<svg width="256" height="256" viewBox="0 0 256 256" fill="none" xmlns="http://www.w3.org/2000/svg">
<circle cx="128" cy="128" r="95" fill="url(#paint0_radial)"/>
<circle cx="128" cy="128" r="92.5" stroke="#46A29F" stroke-width="15"/>
<path d="M114.5 63C113.672 63 113 63.6716 113 64.5V93L119.857 157.159C119.938 157.922 120.582 158.5 121.348 158.5H134.652C135.418 158.5 136.062 157.922 136.143 157.159L143 93V64.5C143 63.6716 142.328 63 141.5 63H114.5Z" fill="#46A29F"/>
<path d="M120 174.5C120 173.672 120.672 173 121.5 173H134.5C135.328 173 136 173.672 136 174.5V187.5C136 188.328 135.328 189 134.5 189H121.5C120.672 189 120 188.328 120 187.5V174.5Z" fill="#46A29F"/>
<path d="M135.99 0H119.99L115 5V30H140.981V5L135.99 0Z" fill="#46A29F"/>
<path d="M225.056 44.8424L213.742 33.5287L206.678 33.5355L189 51.2132L207.371 69.5844L225.049 51.9067L225.056 44.8424Z" fill="#46A29F"/>
<path d="M256 119.99V135.99L251 140.981H226V115H251L256 119.99Z" fill="#46A29F"/>
<path d="M0 119.99V135.99L5 140.981H30V115H5L0 119.99Z" fill="#46A29F"/>
<path d="M224.056 212.742L212.742 224.056L205.678 224.049L188 206.371L206.371 188L224.049 205.678L224.056 212.742Z" fill="#46A29F"/>
<path d="M120.991 256H136.991L141.981 251V226H116V251L120.991 256Z" fill="#46A29F"/>
<path d="M30.5287 44.8424L41.8424 33.5287L48.9067 33.5355L66.5844 51.2132L48.2132 69.5844L30.5355 51.9067L30.5287 44.8424Z" fill="#46A29F"/>
<path d="M32.5287 212.742L43.8424 224.056L50.9066 224.049L68.5843 206.371L50.2131 188L32.5355 205.678L32.5287 212.742Z" fill="#46A29F"/>
<defs>
<radialGradient id="paint0_radial" cx="0" cy="0" r="1" gradientUnits="userSpaceOnUse" gradientTransform="translate(128 128) rotate(90) scale(95)">
<stop stop-color="white" stop-opacity="0"/>
<stop offset="1" stop-color="#46A29F" stop-opacity="0.5"/>
</radialGradient>
</defs>
</svg>
