<svg width="240" height="193" viewBox="0 0 240 193" fill="none" xmlns="http://www.w3.org/2000/svg">
<path d="M220 5C228.284 5 235 11.7157 235 20V124.692C235 128.728 231.728 132 227.692 132C218.134 132 210.385 139.749 210.385 149.308V177.315L184.247 142.1C179.53 135.746 172.085 132 164.172 132H20C11.7157 132 5 125.284 5 117V20C5 11.7157 11.7157 5 20 5H220Z" fill="url(#paint0_radial)" stroke="#46A29F" stroke-width="10"/>
<path d="M71.7784 68.9412C71.7784 77.2254 65.0539 83.9412 56.7587 83.9412C48.4635 83.9412 41.7389 77.2254 41.7389 68.9412C41.7389 60.6569 48.4635 53.9412 56.7587 53.9412C65.0539 53.9412 71.7784 60.6569 71.7784 68.9412Z" fill="#46A29F"/>
<path d="M134.862 68.9412C134.862 77.2254 128.137 83.9412 119.842 83.9412C111.547 83.9412 104.822 77.2254 104.822 68.9412C104.822 60.6569 111.547 53.9412 119.842 53.9412C128.137 53.9412 134.862 60.6569 134.862 68.9412Z" fill="#46A29F"/>
<path d="M197.945 68.9412C197.945 77.2254 191.22 83.9412 182.925 83.9412C174.63 83.9412 167.905 77.2254 167.905 68.9412C167.905 60.6569 174.63 53.9412 182.925 53.9412C191.22 53.9412 197.945 60.6569 197.945 68.9412Z" fill="#46A29F"/>
<defs>
<radialGradient id="paint0_radial" cx="0" cy="0" r="1" gradientUnits="userSpaceOnUse" gradientTransform="translate(120 96.2206) rotate(90) scale(96.2206 120)">
<stop offset="0.125" stop-color="#46A29F" stop-opacity="0"/>
<stop offset="1" stop-color="#46A29F" stop-opacity="0.3"/>
</radialGradient>
</defs>
</svg>
