<svg width="286" height="262" viewBox="0 0 286 262" fill="none" xmlns="http://www.w3.org/2000/svg">
<path d="M140.518 87.545C140.826 86.7562 140.995 85.8978 140.995 85C140.995 81.134 137.861 78 133.995 78C130.129 78 126.995 81.134 126.995 85C126.995 85.7215 127.104 86.4174 127.307 87.0723L67.6333 139.018C66.5731 138.372 65.3276 138 63.9952 138C61.7148 138 59.689 139.09 58.411 140.778L7.85945 122.154L6.13092 126.846L57.0201 145.594C57.3218 149.182 60.3294 152 63.9952 152C67.8612 152 70.9952 148.866 70.9952 145C70.9952 144.297 70.8916 143.619 70.699 142.979L130.401 91.008C131.452 91.6379 132.681 92 133.995 92C135.131 92 136.203 91.7296 137.151 91.2497L187.72 132.894C187.256 133.83 186.995 134.885 186.995 136C186.995 139.866 190.129 143 193.995 143C197.861 143 200.995 139.866 200.995 136C200.995 135.863 200.991 135.726 200.983 135.591L256.371 129.169C257.647 130.887 259.691 132 261.995 132C265.861 132 268.995 128.866 268.995 125C268.995 121.134 265.861 118 261.995 118C258.369 118 255.386 120.758 255.031 124.291L198.705 130.821C197.461 129.69 195.809 129 193.995 129C193.094 129 192.232 129.17 191.44 129.481L140.518 87.545Z" fill="#2F9BFF"/>
<path d="M70.7332 180.904C70.9039 180.298 70.9952 179.66 70.9952 179C70.9952 175.134 67.8612 172 63.9952 172C60.1292 172 56.9952 175.134 56.9952 179C56.9952 179.488 57.0451 179.964 57.1401 180.424L4.51755 218.983L7.47286 223.017L59.8469 184.639C61.0079 185.494 62.4425 186 63.9952 186C65.3713 186 66.6546 185.603 67.7368 184.917L127.276 235.032C127.093 235.657 126.995 236.317 126.995 237C126.995 240.866 130.129 244 133.995 244C137.861 244 140.995 240.866 140.995 237C140.995 236.267 140.883 235.561 140.674 234.897L188.033 200.67C189.266 202.668 191.475 204 193.995 204C196.936 204 199.453 202.187 200.49 199.617L254.995 220.946L254.995 221C254.995 224.866 258.129 228 261.995 228C265.861 228 268.995 224.866 268.995 221C268.995 217.134 265.861 214 261.995 214C259.943 214 258.098 214.883 256.817 216.289L200.422 194.222C199.347 191.738 196.874 190 193.995 190C190.805 190 188.113 192.135 187.269 195.053L137.563 230.976C136.518 230.356 135.298 230 133.995 230C132.642 230 131.378 230.384 130.307 231.049L70.7332 180.904Z" fill="#D74B4A"/>
<path d="M70.9681 161.38L128.887 192.214C130.164 190.851 131.98 190 133.995 190C136.373 190 138.475 191.186 139.74 192.999L187.001 178.701C187.158 174.974 190.229 172 193.995 172C196.837 172 199.284 173.694 200.38 176.127L255.101 169.783C255.677 166.497 258.544 164 261.995 164C265.861 164 268.995 167.134 268.995 171C268.995 174.866 265.861 178 261.995 178C259.49 178 257.292 176.684 256.055 174.705L200.666 181.127C199.766 183.953 197.119 186 193.995 186C191.817 186 189.871 185.005 188.588 183.445L140.943 197.859C140.52 201.32 137.57 204 133.995 204C130.129 204 126.995 200.866 126.995 197C126.995 196.957 126.996 196.915 126.996 196.872L69.534 166.281C68.2537 167.935 66.2488 169 63.9952 169C60.9345 169 58.3326 167.036 57.3814 164.299L6.46103 173.956L5.52936 169.044L57.5908 159.17C58.6778 156.714 61.1363 155 63.9952 155C67.6523 155 70.6543 157.804 70.9681 161.38Z" fill="#F8D55C"/>
<path d="M12.9904 27.75L6.49519 0L0 27.75H3.80586V245.608C3.80586 252.512 9.40231 258.108 16.3059 258.108H258.245V261.995L285.995 255.5L258.245 249.005V253.108L16.3059 253.108C12.1637 253.108 8.80586 249.75 8.80586 245.608V27.75H12.9904Z" fill="#D74B4A"/>
</svg>
