<svg width="257" height="257" viewBox="0 0 257 257" fill="none" xmlns="http://www.w3.org/2000/svg">
<path d="M229.782 79.1166C240.632 100.961 244.072 125.745 239.581 149.718C235.09 173.692 222.913 195.55 204.892 211.986C186.871 228.422 163.987 238.541 139.703 240.812C115.418 243.083 91.0548 237.383 70.2987 224.574C49.5427 211.764 33.5235 192.543 24.6651 169.818C15.8068 147.093 14.5912 122.101 21.2023 98.624C27.8135 75.1467 41.8916 54.4615 61.3066 39.6982C80.7215 24.935 104.417 16.8971 128.807 16.8009L129.25 129.05L229.782 79.1166Z" fill="url(#paint0_radial)"/>
<circle cx="129" cy="129" r="119.674" transform="rotate(89.6266 129 129)" stroke="url(#paint1_linear)" stroke-width="15"/>
<path fill-rule="evenodd" clip-rule="evenodd" d="M61.6668 61.6665L48.4664 185.185C47.9232 190.267 43.6345 194.122 38.523 194.122H24.1439C19.0324 194.122 14.7437 190.267 14.2005 185.185L1.00012 61.6665V11C1.00012 5.47716 5.47727 1 11.0001 1H51.6668C57.1896 1 61.6668 5.47715 61.6668 11V61.6665ZM15.1558 233.444C15.1558 227.921 19.6329 223.444 25.1558 223.444H37.5113C43.0342 223.444 47.5113 227.921 47.5113 233.444V245.8C47.5113 251.323 43.0342 255.8 37.5113 255.8H25.1558C19.6329 255.8 15.1558 251.323 15.1558 245.8V233.444ZM130.293 29.9936C129.787 31.2442 128.017 31.2442 127.511 29.9936L122.026 16.4208C121.628 15.4347 122.353 14.3587 123.417 14.3587H134.388C135.451 14.3587 136.177 15.4348 135.778 16.4208L130.293 29.9936ZM226.941 130.391C225.691 129.885 225.691 128.115 226.941 127.609L240.514 122.124C241.5 121.725 242.576 122.451 242.576 123.514V134.485C242.576 135.549 241.5 136.275 240.514 135.876L226.941 130.391ZM131.293 227.441C130.787 226.191 129.017 226.191 128.511 227.441L123.026 241.014C122.628 242 123.353 243.076 124.417 243.076H135.388C136.451 243.076 137.177 242 136.778 241.014L131.293 227.441ZM196.745 200.711C196.218 199.47 197.47 198.218 198.711 198.745L212.188 204.463C213.167 204.879 213.414 206.153 212.662 206.905L204.905 214.662C204.153 215.414 202.879 215.167 202.463 214.188L196.745 200.711ZM199.745 59.8632C199.218 61.1049 200.47 62.3569 201.711 61.83L215.188 56.1113C216.167 55.6959 216.414 54.4218 215.662 53.6698L207.905 45.9123C207.153 45.1603 205.879 45.408 205.463 46.387L199.745 59.8632ZM126.44 41.9413C126.44 40.5271 127.586 39.3807 129 39.3807C130.414 39.3807 131.561 40.5271 131.561 41.9413V125.242L177.111 102.189C178.589 101.44 180.394 102.032 181.142 103.51L181.566 104.349C182.314 105.827 181.723 107.632 180.244 108.38L130.543 133.535C129.065 134.283 127.26 133.691 126.512 132.213L126.087 131.375C125.51 130.234 125.73 128.9 126.54 128.005C126.475 127.779 126.44 127.54 126.44 127.293V41.9413Z" fill="#D74B4A"/>
<path d="M48.4664 185.185L48.4167 185.179L48.4664 185.185ZM61.6668 61.6665L61.7168 61.6719V61.6665H61.6668ZM14.2005 185.185L14.2503 185.179L14.2005 185.185ZM1.00012 61.6665H0.949837L0.950405 61.6718L1.00012 61.6665ZM127.511 29.9936L127.465 30.0124L127.511 29.9936ZM130.293 29.9936L130.339 30.0124L130.293 29.9936ZM122.026 16.4208L121.98 16.4395L122.026 16.4208ZM135.778 16.4208L135.825 16.4395L135.778 16.4208ZM226.941 127.609L226.96 127.656L226.941 127.609ZM226.941 130.391L226.922 130.437L226.941 130.391ZM240.514 122.124L240.533 122.17L240.514 122.124ZM240.514 135.876L240.533 135.83L240.514 135.876ZM128.511 227.441L128.465 227.422L128.511 227.441ZM131.293 227.441L131.339 227.422L131.293 227.441ZM123.026 241.014L123.072 241.033L123.026 241.014ZM136.778 241.014L136.825 240.995L136.778 241.014ZM198.711 198.745L198.731 198.699L198.711 198.745ZM196.745 200.711L196.699 200.731L196.745 200.711ZM212.188 204.463L212.207 204.417L212.188 204.463ZM212.662 206.905L212.698 206.94L212.662 206.905ZM204.905 214.662L204.869 214.627L204.905 214.662ZM202.463 214.188L202.509 214.168L202.463 214.188ZM201.711 61.83L201.731 61.876L201.711 61.83ZM199.745 59.8632L199.699 59.8437L199.745 59.8632ZM215.188 56.1113L215.207 56.1573L215.188 56.1113ZM215.662 53.6698L215.698 53.6345L215.662 53.6698ZM207.905 45.9123L207.87 45.9476L207.905 45.9123ZM205.463 46.387L205.417 46.3675L205.463 46.387ZM131.561 125.242H131.511V125.324L131.583 125.287L131.561 125.242ZM177.111 102.189L177.133 102.233L177.111 102.189ZM181.142 103.51L181.187 103.488L181.142 103.51ZM181.566 104.349L181.522 104.371L181.566 104.349ZM180.244 108.38L180.267 108.425L180.244 108.38ZM130.543 133.535L130.52 133.49L130.543 133.535ZM126.512 132.213L126.467 132.236L126.512 132.213ZM126.087 131.375L126.132 131.352L126.087 131.375ZM126.54 128.005L126.577 128.039L126.596 128.018L126.588 127.992L126.54 128.005ZM48.5161 185.19L61.7165 61.6718L61.6171 61.6612L48.4167 185.179L48.5161 185.19ZM38.523 194.172C43.6601 194.172 47.9702 190.298 48.5161 185.19L48.4167 185.179C47.8762 190.237 43.6089 194.072 38.523 194.072V194.172ZM24.1439 194.172H38.523V194.072H24.1439V194.172ZM14.1508 185.19C14.6967 190.298 19.0069 194.172 24.1439 194.172V194.072C19.058 194.072 14.7907 190.237 14.2503 185.179L14.1508 185.19ZM0.950405 61.6718L14.1508 185.19L14.2503 185.179L1.04984 61.6612L0.950405 61.6718ZM0.950122 11V61.6665H1.05012V11H0.950122ZM11.0001 0.95C5.44966 0.95 0.950122 5.44954 0.950122 11H1.05012C1.05012 5.50477 5.50489 1.05 11.0001 1.05V0.95ZM51.6668 0.95H11.0001V1.05H51.6668V0.95ZM61.7168 11C61.7168 5.44954 57.2172 0.95 51.6668 0.95V1.05C57.162 1.05 61.6168 5.50477 61.6168 11H61.7168ZM61.7168 61.6665V11H61.6168V61.6665H61.7168ZM25.1558 223.394C19.6053 223.394 15.1058 227.894 15.1058 233.444H15.2058C15.2058 227.949 19.6605 223.494 25.1558 223.494V223.394ZM37.5113 223.394H25.1558V223.494H37.5113V223.394ZM47.5613 233.444C47.5613 227.894 43.0618 223.394 37.5113 223.394V223.494C43.0065 223.494 47.4613 227.949 47.4613 233.444H47.5613ZM47.5613 245.8V233.444H47.4613V245.8H47.5613ZM37.5113 255.85C43.0618 255.85 47.5613 251.35 47.5613 245.8H47.4613C47.4613 251.295 43.0065 255.75 37.5113 255.75V255.85ZM25.1558 255.85H37.5113V255.75H25.1558V255.85ZM15.1058 245.8C15.1058 251.35 19.6053 255.85 25.1558 255.85V255.75C19.6605 255.75 15.2058 251.295 15.2058 245.8H15.1058ZM15.1058 233.444V245.8H15.2058V233.444H15.1058ZM127.465 30.0124C127.987 31.3047 129.817 31.3047 130.339 30.0124L130.247 29.9749C129.758 31.1838 128.046 31.1838 127.558 29.9749L127.465 30.0124ZM121.98 16.4395L127.465 30.0124L127.558 29.9749L122.072 16.402L121.98 16.4395ZM123.417 14.3087C122.318 14.3087 121.568 15.4206 121.98 16.4395L122.072 16.402C121.687 15.4489 122.389 14.4087 123.417 14.4087V14.3087ZM134.388 14.3087H123.417V14.4087H134.388V14.3087ZM135.825 16.4395C136.236 15.4206 135.487 14.3087 134.388 14.3087V14.4087C135.416 14.4087 136.117 15.4489 135.732 16.402L135.825 16.4395ZM130.339 30.0124L135.825 16.4395L135.732 16.402L130.247 29.9749L130.339 30.0124ZM226.922 127.563C225.63 128.085 225.63 129.915 226.922 130.437L226.96 130.344C225.751 129.856 225.751 128.144 226.96 127.656L226.922 127.563ZM240.495 122.077L226.922 127.563L226.96 127.656L240.533 122.17L240.495 122.077ZM242.626 123.514C242.626 122.416 241.514 121.666 240.495 122.077L240.533 122.17C241.486 121.785 242.526 122.486 242.526 123.514H242.626ZM242.626 134.485V123.514H242.526V134.485H242.626ZM240.495 135.922C241.514 136.334 242.626 135.584 242.626 134.485H242.526C242.526 135.513 241.486 136.215 240.533 135.83L240.495 135.922ZM226.922 130.437L240.495 135.922L240.533 135.83L226.96 130.344L226.922 130.437ZM128.558 227.46C129.046 226.251 130.758 226.251 131.247 227.46L131.339 227.422C130.817 226.13 128.987 226.13 128.465 227.422L128.558 227.46ZM123.072 241.033L128.558 227.46L128.465 227.422L122.98 240.995L123.072 241.033ZM124.417 243.026C123.389 243.026 122.687 241.986 123.072 241.033L122.98 240.995C122.568 242.014 123.318 243.126 124.417 243.126V243.026ZM135.388 243.026H124.417V243.126H135.388V243.026ZM136.732 241.033C137.117 241.986 136.416 243.026 135.388 243.026V243.126C136.487 243.126 137.236 242.014 136.825 240.995L136.732 241.033ZM131.247 227.46L136.732 241.033L136.825 240.995L131.339 227.422L131.247 227.46ZM198.731 198.699C197.448 198.154 196.154 199.448 196.699 200.731L196.791 200.692C196.281 199.492 197.492 198.281 198.692 198.791L198.731 198.699ZM212.207 204.417L198.731 198.699L198.692 198.791L212.168 204.509L212.207 204.417ZM212.698 206.94C213.475 206.163 213.219 204.847 212.207 204.417L212.168 204.509C213.115 204.911 213.354 206.143 212.627 206.869L212.698 206.94ZM204.94 214.698L212.698 206.94L212.627 206.869L204.869 214.627L204.94 214.698ZM202.417 214.207C202.847 215.219 204.163 215.475 204.94 214.698L204.869 214.627C204.143 215.354 202.911 215.114 202.509 214.168L202.417 214.207ZM196.699 200.731L202.417 214.207L202.509 214.168L196.791 200.692L196.699 200.731ZM201.692 61.784C200.492 62.2933 199.281 61.0831 199.791 59.8828L199.699 59.8437C199.154 61.1268 200.448 62.4205 201.731 61.876L201.692 61.784ZM215.168 56.0653L201.692 61.784L201.731 61.876L215.207 56.1573L215.168 56.0653ZM215.627 53.7052C216.354 54.4321 216.115 55.6637 215.168 56.0653L215.207 56.1573C216.219 55.7281 216.475 54.4115 215.698 53.6345L215.627 53.7052ZM207.87 45.9476L215.627 53.7052L215.698 53.6345L207.94 45.8769L207.87 45.9476ZM205.509 46.4065C205.911 45.4602 207.143 45.2207 207.87 45.9476L207.94 45.8769C207.163 45.0999 205.847 45.3558 205.417 46.3675L205.509 46.4065ZM199.791 59.8828L205.509 46.4065L205.417 46.3675L199.699 59.8437L199.791 59.8828ZM129 39.3307C127.558 39.3307 126.39 40.4995 126.39 41.9413H126.49C126.49 40.5547 127.614 39.4307 129 39.4307V39.3307ZM131.611 41.9413C131.611 40.4995 130.442 39.3307 129 39.3307V39.4307C130.387 39.4307 131.511 40.5547 131.511 41.9413H131.611ZM131.611 125.242V41.9413H131.511V125.242H131.611ZM177.088 102.144L131.538 125.198L131.583 125.287L177.133 102.233L177.088 102.144ZM181.187 103.488C180.426 101.985 178.591 101.383 177.088 102.144L177.133 102.233C178.587 101.497 180.362 102.079 181.097 103.533L181.187 103.488ZM181.611 104.326L181.187 103.488L181.097 103.533L181.522 104.371L181.611 104.326ZM180.267 108.425C181.77 107.664 182.372 105.829 181.611 104.326L181.522 104.371C182.257 105.825 181.675 107.6 180.222 108.336L180.267 108.425ZM130.566 133.58L180.267 108.425L180.222 108.336L130.52 133.49L130.566 133.58ZM126.467 132.236C127.228 133.739 129.063 134.34 130.566 133.58L130.52 133.49C129.067 134.226 127.292 133.644 126.556 132.19L126.467 132.236ZM126.043 131.397L126.467 132.236L126.556 132.19L126.132 131.352L126.043 131.397ZM126.503 127.972C125.68 128.881 125.456 130.238 126.043 131.397L126.132 131.352C125.564 130.231 125.781 128.918 126.577 128.039L126.503 127.972ZM126.39 127.293C126.39 127.545 126.425 127.789 126.492 128.019L126.588 127.992C126.524 127.77 126.49 127.535 126.49 127.293H126.39ZM126.39 41.9413V127.293H126.49V41.9413H126.39Z" fill="#D74B4A"/>
<defs>
<radialGradient id="paint0_radial" cx="0" cy="0" r="1" gradientUnits="userSpaceOnUse" gradientTransform="translate(129.25 129.05) rotate(90) scale(112.25)">
<stop stop-color="white" stop-opacity="0"/>
<stop offset="1" stop-color="#D74B4A" stop-opacity="0.5"/>
</radialGradient>
<linearGradient id="paint1_linear" x1="129" y1="1.82619" x2="129" y2="256.174" gradientUnits="userSpaceOnUse">
<stop offset="0.5625" stop-color="#D74B4A"/>
<stop offset="0.90625" stop-color="#D74B4A" stop-opacity="0"/>
</linearGradient>
</defs>
</svg>
