<svg width="349" height="281" viewBox="0 0 349 281" fill="none" xmlns="http://www.w3.org/2000/svg">
<path d="M180.609 7.36693C184.116 4.76761 188.903 4.74269 192.436 7.30535L330.47 107.423C336.14 111.535 333.231 120.5 326.227 120.5C322.236 120.5 319 123.736 319 127.727V264.25C319 269.773 314.523 274.25 309 274.25H304C298.477 274.25 294 269.773 294 264.25V178.5C294 172.977 289.523 168.5 284 168.5H235C229.477 168.5 225 172.977 225 178.5V264.25C225 269.773 220.523 274.25 215 274.25H65.4097C59.8868 274.25 55.4097 269.773 55.4097 264.25V127.305C55.4097 123.547 52.3631 120.5 48.6051 120.5C42.0465 120.5 39.284 112.135 44.5527 108.229L180.609 7.36693Z" fill="url(#paint0_linear)" stroke="url(#paint1_linear)" stroke-width="10"/>
<path d="M291.5 8C297.023 8 301.5 12.4772 301.5 18V86.5L246.5 46.5V18C246.5 12.4772 250.977 8 256.5 8H291.5Z" stroke="#46A29F" stroke-width="10"/>
<path d="M10 271H82H44.5V68C44.5 96.7264 41.5 126.317 5 147" stroke="#46A29F" stroke-width="20"/>
<path d="M134.676 229.775C134.676 225.381 133.006 221.982 129.666 219.58C126.385 217.119 120.613 215.01 112.352 213.252C104.148 211.494 97.6152 209.385 92.752 206.924C87.9473 204.463 84.373 201.533 82.0293 198.135C79.7441 194.736 78.6016 190.693 78.6016 186.006C78.6016 178.213 81.8828 171.621 88.4453 166.23C95.0664 160.84 103.504 158.145 113.758 158.145C124.539 158.145 133.27 160.928 139.949 166.494C146.688 172.061 150.057 179.18 150.057 187.852H133.709C133.709 183.398 131.805 179.561 127.996 176.338C124.246 173.115 119.5 171.504 113.758 171.504C107.84 171.504 103.211 172.793 99.8711 175.371C96.5312 177.949 94.8613 181.318 94.8613 185.479C94.8613 189.404 96.4141 192.363 99.5195 194.355C102.625 196.348 108.221 198.252 116.307 200.068C124.451 201.885 131.043 204.053 136.082 206.572C141.121 209.092 144.842 212.139 147.244 215.713C149.705 219.229 150.936 223.535 150.936 228.633C150.936 237.129 147.537 243.955 140.74 249.111C133.943 254.209 125.125 256.758 114.285 256.758C106.668 256.758 99.9297 255.41 94.0703 252.715C88.2109 250.02 83.6113 246.27 80.2715 241.465C76.9902 236.602 75.3496 231.357 75.3496 225.732H91.6094C91.9023 231.182 94.0703 235.518 98.1133 238.74C102.215 241.904 107.605 243.486 114.285 243.486C120.438 243.486 125.359 242.256 129.051 239.795C132.801 237.275 134.676 233.936 134.676 229.775ZM194.178 136.875V159.902H211.932V172.471H194.178V231.445C194.178 235.254 194.969 238.125 196.551 240.059C198.133 241.934 200.828 242.871 204.637 242.871C206.512 242.871 209.09 242.52 212.371 241.816V255C208.094 256.172 203.934 256.758 199.891 256.758C192.625 256.758 187.146 254.561 183.455 250.166C179.764 245.771 177.918 239.531 177.918 231.445V172.471H160.604V159.902H177.918V136.875H194.178Z" fill="#46A29F"/>
<defs>
<linearGradient id="paint0_linear" x1="188.25" y1="3" x2="188.25" y2="274.25" gradientUnits="userSpaceOnUse">
<stop offset="0.411458" stop-color="#46A29F" stop-opacity="0.3"/>
<stop offset="1" stop-color="#C4C4C4" stop-opacity="0"/>
</linearGradient>
<linearGradient id="paint1_linear" x1="365.5" y1="139" x2="28" y2="139" gradientUnits="userSpaceOnUse">
<stop offset="0.416667" stop-color="#46A29F"/>
<stop offset="1" stop-color="#46A29F" stop-opacity="0"/>
</linearGradient>
</defs>
</svg>
