<svg width="321" height="280" viewBox="0 0 321 280" fill="none" xmlns="http://www.w3.org/2000/svg">
<path d="M152.609 7.36693C156.116 4.76761 160.903 4.74269 164.436 7.30535L302.47 107.423C308.14 111.535 305.231 120.5 298.227 120.5C294.236 120.5 291 123.736 291 127.727V264.25C291 269.773 286.523 274.25 281 274.25H276C270.477 274.25 266 269.773 266 264.25V178.5C266 172.977 261.523 168.5 256 168.5H207C201.477 168.5 197 172.977 197 178.5V264.25C197 269.773 192.523 274.25 187 274.25H37.4097C31.8868 274.25 27.4097 269.773 27.4097 264.25V127.305C27.4097 123.547 24.3631 120.5 20.6051 120.5C14.0465 120.5 11.284 112.135 16.5527 108.229L152.609 7.36693Z" fill="url(#paint0_linear)" stroke="#46A29F" stroke-width="10"/>
<rect x="64" y="141" width="96" height="59" rx="10" stroke="#46A29F" stroke-width="10"/>
<path d="M263.5 8C269.023 8 273.5 12.4772 273.5 18V86.5L218.5 46.5V18C218.5 12.4772 222.977 8 228.5 8H263.5Z" stroke="#46A29F" stroke-width="10"/>
<defs>
<linearGradient id="paint0_linear" x1="160.25" y1="3" x2="160.25" y2="274.25" gradientUnits="userSpaceOnUse">
<stop offset="0.411458" stop-color="#46A29F" stop-opacity="0.3"/>
<stop offset="1" stop-color="#C4C4C4" stop-opacity="0"/>
</linearGradient>
</defs>
</svg>
