<svg width="267" height="267" viewBox="0 0 267 267" fill="none" xmlns="http://www.w3.org/2000/svg">
<path d="M148.88 103.001C148.687 100.269 149.413 96.9052 152.269 93.2474C152.497 93.1974 152.722 93.1199 152.94 93.0136L167.601 85.8738C169.824 84.7909 169.856 81.634 167.655 80.5065L154.284 73.6578C153.204 73.1048 151.897 73.2565 150.973 74.0421L144.91 79.196L144.909 79.195L144.885 79.2168L144.464 79.5752C144.3 79.7142 144.155 79.8674 144.028 80.0317C136.614 87.2757 133.326 95.7007 133.917 104.059C134.235 108.549 135.65 112.717 137.806 116.389C137.35 116.725 136.916 117.104 136.511 117.527L87.9713 168.152C84.1293 172.159 84.2865 178.529 88.3213 182.342L90.0245 183.951C94.0181 187.725 100.308 187.569 104.111 183.603L152.65 132.978C153.398 132.198 153.995 131.328 154.441 130.405C158.459 131.967 162.831 132.766 167.302 132.553C175.707 132.153 183.93 128.192 190.195 120.101C190.255 120.033 190.313 119.963 190.367 119.889L194.838 113.821C195.544 112.863 195.617 111.578 195.024 110.546L187.601 97.6368C186.349 95.4593 183.135 95.6926 182.21 98.0281L176.148 113.344C173.056 116.262 169.719 117.421 166.589 117.57C162.425 117.768 158.057 116.188 154.618 113.319C151.179 110.449 149.141 106.701 148.88 103.001Z" fill="#46A29F"/>
<path fill-rule="evenodd" clip-rule="evenodd" d="M124.082 0H143.582L149.664 6.09375V35.2197C167.556 38.0343 183.872 45.5934 197.285 56.5686L216.545 37.3089L225.154 37.3006L238.943 51.0892L238.935 59.6988L218.358 80.2757C225.533 91.5196 230.523 104.294 232.727 118H260.469L266.562 124.082V143.582L260.469 149.664H232.78C230.595 163.558 225.548 176.501 218.263 187.873L238.934 208.545L238.943 217.154L225.154 230.943L216.545 230.935L197.151 211.541C183.764 222.457 167.496 229.975 149.664 232.78V260.469L143.582 266.562H124.082L118 260.469V232.727C99.6263 229.772 82.9266 221.812 69.3442 210.289L50.6988 228.935L42.0893 228.943L28.3007 215.154L28.309 206.545L48.6754 186.178C41.9609 175.222 37.2976 162.872 35.2197 149.664H6.09375L0 143.582V124.082L6.09375 118H35.2732C37.3671 104.979 41.9749 92.7988 48.583 81.9729L28.3089 61.6988L28.3006 53.0892L42.0892 39.3007L50.6988 39.3089L69.2126 57.8227C82.8187 46.2397 99.5669 38.2374 118 35.2731V6.09375L124.082 0ZM134 219C180.944 219 219 180.944 219 134C219 87.0558 180.944 49 134 49C87.0559 49 49.0001 87.0558 49.0001 134C49.0001 180.944 87.0559 219 134 219Z" fill="#46A29F"/>
</svg>
