<svg width="354" height="287" viewBox="0 0 354 287" fill="none" xmlns="http://www.w3.org/2000/svg">
<path d="M185.998 7.36693C189.505 4.76761 194.292 4.74269 197.825 7.30535L335.859 107.423C341.529 111.535 338.62 120.5 331.616 120.5C327.625 120.5 324.389 123.736 324.389 127.727V264.25C324.389 269.773 319.912 274.25 314.389 274.25H309.389C303.866 274.25 299.389 269.773 299.389 264.25V178.5C299.389 172.977 294.912 168.5 289.389 168.5H240.389C234.866 168.5 230.389 172.977 230.389 178.5V264.25C230.389 269.773 225.912 274.25 220.389 274.25H70.7986C65.2758 274.25 60.7986 269.773 60.7986 264.25V127.305C60.7986 123.547 57.7521 120.5 53.994 120.5C47.4355 120.5 44.673 112.135 49.9417 108.229L185.998 7.36693Z" fill="url(#paint0_linear)" stroke="url(#paint1_linear)" stroke-width="10"/>
<path d="M296.889 8C302.412 8 306.889 12.4772 306.889 18V86.5L251.889 46.5V18C251.889 12.4772 256.366 8 261.889 8H296.889Z" stroke="#D74B4A" stroke-width="10"/>
<path d="M114 276.55H21.0065C21.0065 248.764 29.2503 225.322 63.6432 206.605C141.836 164.051 97.8353 105.03 49.8352 107.051C23.3899 108.163 3.88983 145 13.4819 169.374" stroke="#D74B4A" stroke-width="20"/>
<path d="M111.457 198.602L111.809 206.57C116.652 200.477 122.98 197.43 130.793 197.43C144.191 197.43 150.949 204.988 151.066 220.105V262H140.227V220.047C140.188 215.477 139.133 212.098 137.062 209.91C135.031 207.723 131.848 206.629 127.512 206.629C123.996 206.629 120.91 207.566 118.254 209.441C115.598 211.316 113.527 213.777 112.043 216.824V262H101.203V198.602H111.457ZM164.777 229.773C164.777 220.047 167.082 212.234 171.691 206.336C176.301 200.398 182.336 197.43 189.797 197.43C197.219 197.43 203.098 199.969 207.434 205.047V172H218.273V262H208.312L207.785 255.203C203.449 260.516 197.414 263.172 189.68 263.172C182.336 263.172 176.34 260.164 171.691 254.148C167.082 248.133 164.777 240.281 164.777 230.594V229.773ZM175.617 231.004C175.617 238.191 177.102 243.816 180.07 247.879C183.039 251.941 187.141 253.973 192.375 253.973C199.25 253.973 204.27 250.887 207.434 244.715V215.594C204.191 209.617 199.211 206.629 192.492 206.629C187.18 206.629 183.039 208.68 180.07 212.781C177.102 216.883 175.617 222.957 175.617 231.004Z" fill="#D74B4A"/>
<defs>
<linearGradient id="paint0_linear" x1="193.639" y1="3" x2="193.639" y2="274.25" gradientUnits="userSpaceOnUse">
<stop offset="0.411458" stop-color="#D74B4A" stop-opacity="0.3"/>
<stop offset="1" stop-color="#C4C4C4" stop-opacity="0"/>
</linearGradient>
<linearGradient id="paint1_linear" x1="370.889" y1="139" x2="33.389" y2="139" gradientUnits="userSpaceOnUse">
<stop offset="0.416667" stop-color="#D74B4A"/>
<stop offset="1" stop-color="#D74B4A" stop-opacity="0"/>
</linearGradient>
</defs>
</svg>
