<svg width="321" height="280" viewBox="0 0 321 280" fill="none" xmlns="http://www.w3.org/2000/svg">
<path d="M152.609 7.36693C156.116 4.76761 160.903 4.74269 164.436 7.30535L302.47 107.423C308.14 111.535 305.231 120.5 298.227 120.5C294.236 120.5 291 123.736 291 127.727V264.25C291 269.773 286.523 274.25 281 274.25H276C270.477 274.25 266 269.773 266 264.25V151C266 145.477 261.523 141 256 141H65C59.4772 141 55 145.477 55 151V264.25C55 269.773 50.5228 274.25 45 274.25H37.4097C31.8868 274.25 27.4097 269.773 27.4097 264.25V127.305C27.4097 123.547 24.3631 120.5 20.6051 120.5C14.0465 120.5 11.284 112.135 16.5527 108.229L152.609 7.36693Z" fill="url(#paint0_linear)" stroke="#D74B4A" stroke-width="10"/>
<line x1="57" y1="167" x2="264" y2="167" stroke="#D74B4A" stroke-width="10"/>
<line x1="59" y1="218" x2="266" y2="218" stroke="#D74B4A" stroke-width="10"/>
<line x1="59" y1="247" x2="266" y2="247" stroke="#D74B4A" stroke-width="10"/>
<path d="M36.5 274H283" stroke="#D74B4A" stroke-width="9"/>
<line x1="56" y1="192" x2="263" y2="192" stroke="#D74B4A" stroke-width="10"/>
<circle cx="161" cy="261" r="6" fill="#D74B4A"/>
<defs>
<linearGradient id="paint0_linear" x1="160.25" y1="3" x2="160.25" y2="274.25" gradientUnits="userSpaceOnUse">
<stop offset="0.411458" stop-color="#D74B4A" stop-opacity="0.3"/>
<stop offset="1" stop-color="#C4C4C4" stop-opacity="0"/>
</linearGradient>
</defs>
</svg>
