<svg width="209" height="209" viewBox="0 0 209 209" fill="none" xmlns="http://www.w3.org/2000/svg">
<circle cx="104.5" cy="104.5" r="104.5" fill="url(#paint0_radial)"/>
<path fill-rule="evenodd" clip-rule="evenodd" d="M63.6321 53.6056C63.6321 57.8061 60.227 61.2113 56.0265 61.2113H54.3162C49.1712 61.2113 45.0004 65.3821 45.0004 70.5271L45.0001 126C45.0001 131.523 49.4773 136 55.0001 136H154.658C160.181 136 164.658 131.523 164.658 126L164.658 71.2113C164.658 65.6884 160.181 61.2113 154.658 61.2113H99.5074C95.307 61.2113 91.9018 57.8061 91.9018 53.6056C91.9018 49.4052 88.4966 46 84.2962 46H71.2378C67.0373 46 63.6321 49.4052 63.6321 53.6056ZM73.32 162H74.4C74.5733 162 74.66 161.92 74.66 161.76V149.14H76.2C76.36 149.14 76.44 149.06 76.44 148.9V147.88C76.44 147.72 76.36 147.64 76.2 147.64H71.38C71.22 147.64 71.14 147.72 71.14 147.88V148.9C71.14 149.06 71.22 149.14 71.38 149.14H72.92V159.18H72.88L71.74 157.24L66.04 148.32C65.7467 147.867 65.4067 147.64 65.02 147.64H62.22C62.0467 147.64 61.96 147.72 61.96 147.88V148.9C61.96 149.06 62.0467 149.14 62.22 149.14H63.74V160.5H62.22C62.0467 160.5 61.96 160.58 61.96 160.74V161.76C61.96 161.92 62.0467 162 62.22 162H67.02C67.1933 162 67.28 161.92 67.28 161.76V160.74C67.28 160.58 67.1933 160.5 67.02 160.5H65.48V150.66H65.52L66.52 152.34L72.3 161.38C72.4333 161.593 72.5733 161.753 72.72 161.86C72.8667 161.953 73.0667 162 73.32 162ZM81.6814 162.14C83.1348 162.14 84.3281 161.673 85.2614 160.74C86.1948 159.807 86.6614 158.58 86.6614 157.06C86.6614 155.527 86.1881 154.307 85.2414 153.4C84.3081 152.48 83.1214 152.02 81.6814 152.02C80.2547 152.02 79.0681 152.473 78.1214 153.38C77.1748 154.287 76.7014 155.513 76.7014 157.06C76.7014 158.593 77.1681 159.827 78.1014 160.76C79.0348 161.68 80.2281 162.14 81.6814 162.14ZM79.3414 159.72C78.7014 159.04 78.3814 158.153 78.3814 157.06C78.3814 155.967 78.7081 155.087 79.3614 154.42C80.0148 153.753 80.7948 153.42 81.7014 153.42C82.6081 153.42 83.3814 153.753 84.0214 154.42C84.6748 155.087 85.0014 155.967 85.0014 157.06C85.0014 158.153 84.6814 159.04 84.0414 159.72C83.4014 160.4 82.6147 160.74 81.6814 160.74C80.7614 160.74 79.9814 160.4 79.3414 159.72ZM94.7349 166.5H98.7549C98.9282 166.5 99.0149 166.42 99.0149 166.26V165.4C99.0149 165.24 98.9282 165.16 98.7549 165.16H97.4549V161.1C97.4549 160.913 97.4349 160.607 97.3949 160.18H97.4549C97.6949 160.727 98.0882 161.193 98.6349 161.58C99.1949 161.953 99.8882 162.14 100.715 162.14C102.075 162.14 103.162 161.667 103.975 160.72C104.788 159.773 105.195 158.547 105.195 157.04C105.195 155.52 104.782 154.307 103.955 153.4C103.128 152.48 102.042 152.02 100.695 152.02C99.8682 152.02 99.1682 152.213 98.5949 152.6C98.0349 152.973 97.6282 153.433 97.3749 153.98H97.3549L97.3749 152.4C97.3749 152.24 97.2882 152.16 97.1149 152.16H94.7749C94.6015 152.16 94.5149 152.24 94.5149 152.4V153.26C94.5149 153.42 94.6015 153.5 94.7749 153.5H95.8549V165.16H94.7349C94.5615 165.16 94.4749 165.24 94.4749 165.4V166.26C94.4749 166.42 94.5615 166.5 94.7349 166.5ZM98.3149 159.8C97.7149 159.173 97.4149 158.28 97.4149 157.12C97.4149 155.96 97.7149 155.053 98.3149 154.4C98.9149 153.747 99.6482 153.42 100.515 153.42C101.382 153.42 102.102 153.753 102.675 154.42C103.262 155.087 103.555 155.973 103.555 157.08C103.555 158.173 103.262 159.06 102.675 159.74C102.102 160.407 101.382 160.74 100.515 160.74C99.6615 160.74 98.9282 160.427 98.3149 159.8ZM115.188 162H117.088C117.261 162 117.348 161.92 117.348 161.76V160.9C117.348 160.74 117.261 160.66 117.088 160.66H115.968V155.5C115.954 154.433 115.648 153.587 115.048 152.96C114.448 152.333 113.614 152.02 112.548 152.02C111.121 152.02 110.081 152.533 109.428 153.56H109.388C109.441 153.187 109.468 152.78 109.468 152.34V147.88C109.468 147.72 109.388 147.64 109.228 147.64H106.708C106.534 147.64 106.448 147.72 106.448 147.88V148.74C106.448 148.9 106.534 148.98 106.708 148.98H107.808V160.66H106.708C106.534 160.66 106.448 160.74 106.448 160.9V161.76C106.448 161.92 106.534 162 106.708 162H110.528C110.701 162 110.788 161.92 110.788 161.76V160.9C110.788 160.74 110.701 160.66 110.528 160.66H109.468V155.18C109.574 154.953 109.708 154.733 109.868 154.52C109.961 154.4 110.081 154.28 110.228 154.16C110.374 154.027 110.588 153.88 110.868 153.72C111.161 153.547 111.581 153.46 112.128 153.46C112.848 153.46 113.394 153.673 113.768 154.1C114.141 154.527 114.328 155.127 114.328 155.9V161.16C114.328 161.72 114.614 162 115.188 162ZM123.322 162.14C124.775 162.14 125.969 161.673 126.902 160.74C127.835 159.807 128.302 158.58 128.302 157.06C128.302 155.527 127.829 154.307 126.882 153.4C125.949 152.48 124.762 152.02 123.322 152.02C121.895 152.02 120.709 152.473 119.762 153.38C118.815 154.287 118.342 155.513 118.342 157.06C118.342 158.593 118.809 159.827 119.742 160.76C120.675 161.68 121.869 162.14 123.322 162.14ZM120.982 159.72C120.342 159.04 120.022 158.153 120.022 157.06C120.022 155.967 120.349 155.087 121.002 154.42C121.655 153.753 122.435 153.42 123.342 153.42C124.249 153.42 125.022 153.753 125.662 154.42C126.315 155.087 126.642 155.967 126.642 157.06C126.642 158.153 126.322 159.04 125.682 159.72C125.042 160.4 124.255 160.74 123.322 160.74C122.402 160.74 121.622 160.4 120.982 159.72ZM136.254 161.16C136.254 161.093 136.228 161.033 136.174 160.98L135.694 160.36C135.588 160.227 135.468 160.22 135.334 160.34C135.081 160.593 134.701 160.72 134.194 160.72C133.701 160.72 133.301 160.553 132.994 160.22C132.701 159.873 132.554 159.367 132.554 158.7V153.5H135.094C135.281 153.5 135.374 153.413 135.374 153.24V152.42C135.374 152.247 135.281 152.16 135.094 152.16H132.554V150.14C132.554 149.953 132.468 149.86 132.294 149.86H131.174C130.988 149.86 130.894 149.953 130.894 150.14V152.16H129.774C129.588 152.16 129.494 152.247 129.494 152.42V153.24C129.494 153.413 129.588 153.5 129.774 153.5H130.894V158.74C130.894 159.847 131.174 160.693 131.734 161.28C132.308 161.853 133.034 162.14 133.914 162.14C134.808 162.14 135.548 161.88 136.134 161.36C136.214 161.28 136.254 161.213 136.254 161.16ZM141.838 162.14C143.291 162.14 144.484 161.673 145.418 160.74C146.351 159.807 146.818 158.58 146.818 157.06C146.818 155.527 146.344 154.307 145.398 153.4C144.464 152.48 143.278 152.02 141.838 152.02C140.411 152.02 139.224 152.473 138.278 153.38C137.331 154.287 136.858 155.513 136.858 157.06C136.858 158.593 137.324 159.827 138.258 160.76C139.191 161.68 140.384 162.14 141.838 162.14ZM139.498 159.72C138.858 159.04 138.538 158.153 138.538 157.06C138.538 155.967 138.864 155.087 139.518 154.42C140.171 153.753 140.951 153.42 141.858 153.42C142.764 153.42 143.538 153.753 144.178 154.42C144.831 155.087 145.158 155.967 145.158 157.06C145.158 158.153 144.838 159.04 144.198 159.72C143.558 160.4 142.771 160.74 141.838 160.74C140.918 160.74 140.138 160.4 139.498 159.72Z" fill="#9B9B9B"/>
<path fill-rule="evenodd" clip-rule="evenodd" d="M116.62 73.8873C114.869 73.8873 113.451 75.3061 113.451 77.0563C113.451 78.8065 114.869 80.2254 116.62 80.2254H150.845C152.595 80.2254 154.014 78.8065 154.014 77.0563C154.014 75.3061 152.595 73.8873 150.845 73.8873H116.62ZM85.5634 118.254C96.0646 118.254 104.577 109.741 104.577 99.2394C104.577 88.7382 96.0646 80.2253 85.5634 80.2253C75.0622 80.2253 66.5493 88.7382 66.5493 99.2394C66.5493 109.741 75.0622 118.254 85.5634 118.254Z" fill="white" fill-opacity="0.6"/>
<defs>
<radialGradient id="paint0_radial" cx="0" cy="0" r="1" gradientUnits="userSpaceOnUse" gradientTransform="translate(104.5 104.5) rotate(90) scale(104.5)">
<stop offset="0.489583" stop-color="#C4C4C4" stop-opacity="0"/>
<stop offset="1" stop-color="#C4C4C4"/>
</radialGradient>
</defs>
</svg>
