<svg width="180" height="245" viewBox="0 0 180 245" fill="none" xmlns="http://www.w3.org/2000/svg">
<path d="M118.254 44C118.254 59.328 105.828 71.7538 90.5 71.7538C75.172 71.7538 62.7462 59.328 62.7462 44C62.7462 28.672 75.172 16.2462 90.5 16.2462C105.828 16.2462 118.254 28.672 118.254 44Z" fill="#C4C4C4"/>
<path d="M87.1154 3.04615C87.1154 1.36381 88.4792 0 90.1615 0C91.8439 0 93.2077 1.36381 93.2077 3.04615V10.4923C93.2077 12.1747 91.8439 13.5385 90.1615 13.5385C88.4792 13.5385 87.1154 12.1747 87.1154 10.4923V3.04615Z" fill="#C4C4C4"/>
<path d="M59.4847 17.2926C58.2951 16.103 58.2951 14.1743 59.4847 12.9847C60.6743 11.7951 62.603 11.7951 63.7926 12.9847L69.0579 18.2499C70.2475 19.4395 70.2475 21.3683 69.0579 22.5579C67.8683 23.7475 65.9395 23.7475 64.75 22.5579L59.4847 17.2926Z" fill="#C4C4C4"/>
<path d="M112.285 69.4157C111.095 68.2261 111.095 66.2974 112.285 65.1078C113.474 63.9182 115.403 63.9182 116.593 65.1078L121.858 70.373C123.047 71.5626 123.047 73.4913 121.858 74.6809C120.668 75.8705 118.74 75.8705 117.55 74.6809L112.285 69.4157Z" fill="#C4C4C4"/>
<path d="M62.4388 76.0348C61.2492 77.2244 59.3205 77.2244 58.1309 76.0348C56.9413 74.8452 56.9413 72.9165 58.1309 71.7269L63.3961 66.4616C64.5857 65.2721 66.5145 65.2721 67.7041 66.4616C68.8937 67.6512 68.8937 69.58 67.7041 70.7696L62.4388 76.0348Z" fill="#C4C4C4"/>
<path d="M116.593 21.204C115.403 22.3936 113.474 22.3936 112.285 21.204C111.095 20.0144 111.095 18.0857 112.285 16.8961L117.55 11.6309C118.74 10.4413 120.668 10.4413 121.858 11.6309C123.047 12.8205 123.047 14.7492 121.858 15.9388L116.593 21.204Z" fill="#C4C4C4"/>
<path d="M124.008 46.7077C122.325 46.7077 120.962 45.3439 120.962 43.6615C120.962 41.9792 122.325 40.6154 124.008 40.6154H131.454C133.136 40.6154 134.5 41.9792 134.5 43.6615C134.5 45.3439 133.136 46.7077 131.454 46.7077H124.008Z" fill="#C4C4C4"/>
<path d="M49.5462 46.7077C47.8638 46.7077 46.5 45.3439 46.5 43.6615C46.5 41.9792 47.8638 40.6154 49.5462 40.6154H56.9923C58.6747 40.6154 60.0385 41.9792 60.0385 43.6615C60.0385 45.3439 58.6747 46.7077 56.9923 46.7077H49.5462Z" fill="#C4C4C4"/>
<path d="M87.1154 77.5077C87.1154 75.8254 88.4792 74.4615 90.1615 74.4615C91.8439 74.4615 93.2077 75.8253 93.2077 77.5077V84.9538C93.2077 86.6362 91.8439 88 90.1615 88C88.4792 88 87.1154 86.6362 87.1154 84.9538V77.5077Z" fill="#C4C4C4"/>
<path d="M84.6289 197.129C89.8338 191.924 96.8931 189 104.254 189C94.5051 197.005 80.8569 219.314 104.254 244.508C96.8931 244.508 89.8338 241.584 84.6289 236.379C79.4241 231.174 76.5 224.115 76.5 216.754C76.5 209.393 79.4241 202.334 84.6289 197.129Z" fill="#C4C4C4"/>
<path d="M137.753 53.4459C136.083 52.6608 134.331 54.3647 135.07 56.0563L146.755 82.8182C147.314 84.0988 148.981 84.4258 149.983 83.4515L155.158 78.4178C157.742 81.5391 160.005 85.3168 163.408 91.7673C170.49 105.19 173.757 120.297 172.853 135.446C171.948 150.595 166.908 165.206 158.279 177.69C149.651 190.175 137.765 200.055 123.913 206.255L126.774 212.644C141.793 205.921 154.682 195.208 164.038 181.67C173.394 168.133 178.86 152.289 179.84 135.863C180.821 119.436 177.279 103.055 169.599 88.5007C166.031 81.7374 163.435 77.3439 160.189 73.524L164.725 69.1115C165.727 68.1372 165.446 66.4622 164.182 65.8678L137.753 53.4459Z" fill="url(#paint0_linear)"/>
<path d="M43.3838 53.5134C29.6051 61.8566 18.318 73.7448 10.7004 87.9375C3.08271 102.13 -0.586307 118.107 0.076162 134.201C0.738631 150.296 5.70831 165.917 14.4666 179.436C19.3767 187.015 25.3766 193.777 32.2416 199.521L28.1762 204.968C27.3262 206.106 27.9016 207.744 29.2773 208.1L55.5886 214.918C57.3228 215.368 58.7278 213.486 57.8038 211.951L43.7851 188.665C43.0522 187.447 41.319 187.361 40.4689 188.5L36.4359 193.903C30.2291 188.659 24.7984 182.509 20.3414 175.63C12.2643 163.162 7.68118 148.756 7.07024 133.914C6.4593 119.071 9.84295 104.337 16.8681 91.2479C23.8933 78.1591 34.3025 67.1955 47.0095 59.5013L43.3838 53.5134Z" fill="url(#paint1_linear)"/>
<defs>
<linearGradient id="paint0_linear" x1="151.957" y1="44.8273" x2="151.957" y2="212.644" gradientUnits="userSpaceOnUse">
<stop offset="0.666667" stop-color="#D74B4A"/>
<stop offset="1" stop-color="#D74B4A" stop-opacity="0"/>
</linearGradient>
<linearGradient id="paint1_linear" x1="29.0484" y1="53.5134" x2="29.0484" y2="214.986" gradientUnits="userSpaceOnUse">
<stop stop-color="#D74B4A" stop-opacity="0"/>
<stop offset="0.447917" stop-color="#D74B4A"/>
</linearGradient>
</defs>
</svg>
